# xmcd
#
# Track frame offsets:
#	150
#	11241
#	21705
#	35721
#	50839
#	67831
#	79353
#	93176
#	105688
#	122032
#	138251
#	149566
#	174064
#
# Disc length: 2654 seconds
#
# Revision: 0
# Processed by: cddbd v1.4PL0 Copyright (c) Steve Scherf et al.
# Submitted via: dBpowerAMP V4.0
#
DISCID=b80a5c0d
DTITLE=Shayne Weems - Whoop It On Me
DYEAR=1900
DGENRE=Country
TTITLE0=Raisin' Cane In Texas
TTITLE1=I Don't Need A Thing At All
TTITLE2=Whoop It On Me
TTITLE3=OO- LA-LA
TTITLE4=Old Hank
TTITLE5=Don't Worry 'Bout Me
TTITLE6=Unsolved Mystery
TTITLE7=Valentine
TTITLE8=You Beat All I Ever Seen
TTITLE9=You've Got Me Beleiving In Love
TTITLE10=Hello Darlin'
TTITLE11=Peace In The Valley
TTITLE12=DATA
EXTD=
EXTT0=
EXTT1=
EXTT2=
EXTT3=
EXTT4=
EXTT5=
EXTT6=
EXTT7=
EXTT8=
EXTT9=
EXTT10=
EXTT11=
EXTT12=
PLAYORDER=
